<?xml version="1.0" encoding="UTF-8"?>
<svg xmlns="http://www.w3.org/2000/svg" style="display: none;">
  <symbol id="icon-email" viewBox="0 0 24 24">
    <title>Email</title>
    <path d="M12 12.713l-11.985-9.713h23.97l-11.985 9.713zm0 2.574l-12-9.728v15.441h24v-15.441l-12 9.728z" />
  </symbol>
  <symbol id="icon-linkedin" viewBox="0 0 24 24">
    <title>LinkedIn</title>
    <path d="M19 0h-14c-2.761 0-5 2.239-5 5v14c0 2.761 2.239 5 5 5h14c2.762 0 5-2.239 5-5v-14c0-2.761-2.238-5-5-5zm-11 19h-3v-11h3v11zm-1.5-12.268c-.966 0-1.75-.79-1.75-1.764s.784-1.764 1.75-1.764 1.75.79 1.75 1.764-.783 1.764-1.75 1.764zm13.5 12.268h-3v-5.604c0-3.368-4-3.113-4 0v5.604h-3v-11h3v1.765c1.396-2.586 7-2.777 7 2.476v6.759z" />
  </symbol>
  <symbol id="icon-github" viewBox="0 0 24 24">
    <title>GitHub</title>
    <path d="M12 0c-6.626 0-12 5.373-12 12 0 5.302 3.438 9.8 8.207 11.387.599.111.793-.261.793-.577v-2.234c-3.338.726-4.033-1.416-4.033-1.416-.546-1.387-1.333-1.756-1.333-1.756-1.089-.745.083-.729.083-.729 1.205.084 1.839 1.237 1.839 1.237 1.07 1.834 2.807 1.304 3.492.997.107-.775.418-1.305.762-1.604-2.665-.305-5.467-1.334-5.467-5.931 0-1.311.469-2.381 1.236-3.221-.124-.303-.535-1.524.117-3.176 0 0 1.008-.322 3.301 1.23.957-.266 1.983-.399 3.003-.404 1.02.005 2.047.138 3.006.404 2.291-1.552 3.297-1.23 3.297-1.23.653 1.653.242 2.874.118 3.176.77.84 1.235 1.91 1.235 3.221 0 4.609-2.807 5.624-5.479 5.921.43.372.823 1.102.823 2.222v3.293c0 .319.192.694.801.576 4.765-1.589 8.199-6.086 8.199-11.386 0-6.627-5.373-12-12-12z" />
  </symbol>
  <symbol id="icon-location" viewBox="0 0 16 16">
    <title>Location</title>
    <path d="M8 10C9.10457 10 10 9.10457 10 8C10 6.89543 9.10457 6 8 6C6.89543 6 6 6.89543 6 8C6 9.10457 6.89543 10 8 10Z" />
    <path fill-rule="evenodd" clip-rule="evenodd" d="M2.08296 7C2.50448 4.48749 4.48749 2.50448 7 2.08296V0H9V2.08296C11.5125 2.50448 13.4955 4.48749 13.917 7H16V9H13.917C13.4955 11.5125 11.5125 13.4955 9 13.917V16H7V13.917C4.48749 13.4955 2.50448 11.5125 2.08296 9H0V7H2.08296ZM4 8C4 5.79086 5.79086 4 8 4C10.2091 4 12 5.79086 12 8C12 10.2091 10.2091 12 8 12C5.79086 12 4 10.2091 4 8Z" />
  </symbol>
  <symbol id="icon-back-to-top" viewBox="0 0 24 24">
    <title>Back to top</title>
    <path d="M7.41 15.41L12 10.83l4.59 4.58L18 14l-6-6-6 6z" />
  </symbol>
</svg>
