<?xml version="1.0" encoding="UTF-8"?>
<svg xmlns="http://www.w3.org/2000/svg" style="display: none;">
  <symbol id="icon-azure" viewBox="0 0 16 16">
    <path d="M15.3702 13.6799L11.3702 1.67989C11.3006 1.47291 11.1652 1.29438 10.9846 1.17159C10.804 1.0488 10.5882 0.988513 10.3702 0.999896H5.63017C5.42052 0.999354 5.21598 1.0647 5.04551 1.18672C4.87504 1.30875 4.74724 1.48127 4.68015 1.67989L0.630165 13.6799C0.577646 13.8346 0.56382 13.9998 0.589943 14.1611C0.616066 14.3225 0.681335 14.4749 0.780007 14.6052C0.878678 14.7354 1.00778 14.8395 1.15598 14.9083C1.30419 14.9771 1.46699 15.0086 1.63017 14.9999H4.56016C4.76809 14.9984 4.97035 14.932 5.13883 14.8101C5.30731 14.6883 5.43363 14.5169 5.50016 14.3199L6.11015 12.5399L9.11015 14.8099C9.28448 14.9362 9.49495 15.0028 9.71018 14.9999H14.3902C14.5517 15.0052 14.7121 14.9712 14.8576 14.901C15.0032 14.8307 15.1295 14.7263 15.2259 14.5965C15.3222 14.4668 15.3856 14.3156 15.4107 14.156C15.4359 13.9963 15.422 13.833 15.3702 13.6799ZM9.75016 14.3399C9.67748 14.3399 9.60693 14.3153 9.55015 14.2699L3.90018 10.0799L3.81016 10.0099H6.81016L6.89017 9.79988L7.89017 7.26988L10.1302 13.8999C10.1482 13.9555 10.1515 14.0148 10.1399 14.072C10.1283 14.1293 10.1022 14.1826 10.064 14.2269C10.0258 14.2711 9.97689 14.3047 9.92191 14.3245C9.86694 14.3443 9.80778 14.3496 9.75016 14.3399V14.3399ZM14.4201 14.3399H10.7002C10.7749 14.1262 10.7749 13.8935 10.7002 13.6799L6.65018 1.67989H10.3702C10.4408 1.68024 10.5095 1.70258 10.5669 1.74379C10.6242 1.78501 10.6673 1.84308 10.6902 1.9099L14.7402 13.9099C14.7538 13.9597 14.756 14.012 14.7464 14.0628C14.7369 14.1136 14.7159 14.1615 14.6851 14.203C14.6542 14.2444 14.6144 14.2783 14.5685 14.302C14.5226 14.3257 14.4718 14.3387 14.4201 14.3399V14.3399Z" />
  </symbol>
  <symbol id="icon-azure-devops" viewBox="0 0 16 16">
    <path d="M5.68623 0H10.3138L12.178 3.27835L13.9282 2.26789L14.4282 3.13392L13.3301 7.232L9.23203 6.13392L8.73203 5.26789L10.4459 4.27837L9.15033 2L6.84966 2L6.29552 2.97447L4.56343 1.97445L5.68623 0Z" />
    <path d="M13.1649 9.05964L13.7039 10.0076L12.6055 12H9.99998L9.99998 9.99995H8.99998L5.99998 12.9999L8.99998 15.9999H9.99998L9.99998 14H13.7868L15.996 9.99242L14.8969 8.05962L13.1649 9.05964Z" />
    <path d="M3.39445 12H4.49998V14H2.21325L0.00390625 9.99242L1.8446 6.75554L0.0717772 5.732L0.571776 4.86598L4.66986 3.7679L5.76793 7.86598L5.26793 8.732L3.57669 7.75556L2.29605 10.0076L3.39445 12Z" />
  </symbol>
  <symbol id="icon-azure-yaml-build-pipelines" viewBox="0 0 24 24">
    <path d="M14 2H6c-1.1 0-1.99.9-1.99 2L4 20c0 1.1.89 2 2 2h8c1.1 0 2-.9 2-2V4c0-1.1-.9-2-2-2zm0 18H6V4h8v16z" />
  </symbol>
  <symbol id="icon-azure-monitoring" viewBox="0 0 48 48">
    <path d="M43,4H5A2.9,2.9,0,0,0,2,7V18.9H7.3l1.8-3.7a1.9,1.9,0,0,1,1.8-1.1,2.1,2.1,0,0,1,1.8,1.1l2.9,6.1,4.8-10.2a2,2,0,0,1,3.6,0l3.7,7.8H30a2,2,0,0,1,0,4H26.4a2.2,2.2,0,0,1-1.8-1.2l-2.4-5L17.4,26.9A2.1,2.1,0,0,1,15.6,28a1.9,1.9,0,0,1-1.8-1.1l-2.9-6.1-.5.9a2,2,0,0,1-1.8,1.2H2V35a3,3,0,0,0,3,3H43a3,3,0,0,0,3-3V7A2.9,2.9,0,0,0,43,4ZM29.4,31.4A2,2,0,0,1,28,32H24a2,2,0,0,1-2-2,1.7,1.7,0,0,1,.6-1.4A2,2,0,0,1,24,28h4a2,2,0,0,1,2,2A1.7,1.7,0,0,1,29.4,31.4Zm10,0A2,2,0,0,1,38,32H34a2,2,0,0,1-2-2,1.7,1.7,0,0,1,.6-1.4A2,2,0,0,1,34,28h4a2,2,0,0,1,2,2A1.7,1.7,0,0,1,39.4,31.4Z" />
    <path d="M37,40H11a2,2,0,0,0,0,4H37a2,2,0,0,0,0-4Z" />
  </symbol>
  <symbol id="icon-azure-api-management" viewBox="0 0 24 24">
    <path d="M12 2C6.48 2 2 6.48 2 12s4.48 10 10 10 10-4.48 10-10S17.52 2 12 2zm-1.5 14.5v-9l6 4.5-6 4.5z" />
  </symbol>
  <symbol id="icon-iac" viewBox="0 0 24 24">
    <path d="M12 2l3.09 6.26L22 9.27l-5 4.87 1.18 6.88L12 17.77l-6.18 3.25L7 14.14 2 9.27l6.91-1.01L12 2z" />
  </symbol>
  <symbol id="icon-azure-data-factory" viewBox="0 0 18 18">
    <path d="M13.25,10.48V6.57a.14.14,0,0,0-.24-.1l-4,4L4.85,14.63V17.5H16.93a.56.56,0,0,0,.57-.57V6.57a.14.14,0,0,0-.24-.1Z" />
    <path d="M4.75,3.58C2.4,3.58.5,2.89.5,2V7.67h0v9.26a.56.56,0,0,0,.57.57H9V2C9,2.89,7.1,3.58,4.75,3.58Z" />
    <rect x="12.91" y="12.97" width="2.27" height="2.27" rx="0.28" />
    <rect x="8.97" y="12.97" width="2.27" height="2.27" rx="0.28" />
    <rect x="5.03" y="12.97" width="2.27" height="2.27" rx="0.28" />
    <path d="M9,2c0,.85-1.9,1.54-4.25,1.54S.5,2.89.5,2,2.4.5,4.75.5,9,1.19,9,2" />
    <path d="M8,1.91c0,.55-1.46,1-3.26,1s-3.26-.43-3.26-1S3,.94,4.75.94,8,1.37,8,1.91" />
    <path d="M4.75,2.14a8.07,8.07,0,0,0-2.58.37,7.64,7.64,0,0,0,2.58.38,7.64,7.64,0,0,0,2.58-.38A8.07,8.07,0,0,0,4.75,2.14Z" />
  </symbol>
  <symbol id="icon-azure-databricks" viewBox="0 0 24 24">
    <path d="M.95 14.184 12 20.403l9.919-5.55v2.21L12 22.662l-10.484-5.96-.565.308v.77L12 24l11.05-6.218v-4.317l-.515-.309L12 19.118l-9.867-5.653v-2.21L12 16.805l11.05-6.218V6.32l-.515-.308L12 11.974 2.647 6.681 12 1.388l7.76 4.368.668-.411v-.566L12 0 .95 6.27v.72L12 13.207l9.919-5.55v2.26L12 15.52 1.516 9.56l-.565.308z" />
  </symbol>
  <symbol id="icon-kubernetes" viewBox="0 0 32 32">
    <path d="M13.604 19.136l0.011 0.009-1.333 3.219c-1.276-0.817-2.251-2.036-2.765-3.463l3.437-0.584 0.005 0.005c0.457-0.083 0.828 0.38 0.645 0.813zM12.495 16.297c0.453-0.125 0.584-0.704 0.229-1.011l0.005-0.016-2.615-2.339c-0.797 1.297-1.141 2.828-0.975 4.339l3.349-0.964zM14.021 13.656c0.38 0.276 0.911 0.016 0.932-0.453l0.016-0.005 0.197-3.495c-1.516 0.177-2.927 0.855-4.016 1.928l2.865 2.025zM15.036 17.323l0.964 0.464 0.964-0.464 0.239-1.036-0.667-0.833h-1.072l-0.667 0.833zM17.036 13.193c0.016 0.468 0.552 0.728 0.933 0.447l0.009 0.005 2.844-2.015c-1.083-1.063-2.484-1.74-3.989-1.923l0.197 3.485zM31.536 21.156l-7.697 9.573c-0.407 0.5-1.016 0.792-1.661 0.792l-12.349 0.005c-0.645 0-1.26-0.292-1.667-0.797l-7.697-9.573c-0.401-0.5-0.552-1.156-0.412-1.787l2.751-11.937c0.14-0.629 0.561-1.151 1.151-1.432l11.12-5.317c0.583-0.276 1.265-0.276 1.848 0l11.125 5.312c0.584 0.281 1.005 0.808 1.151 1.432l2.751 11.943c0.14 0.625-0.011 1.281-0.412 1.787zM27.151 18.412c-0.057-0.011-0.135-0.037-0.192-0.048-0.235-0.041-0.423-0.031-0.641-0.047-0.463-0.052-0.848-0.088-1.192-0.197-0.141-0.052-0.24-0.219-0.287-0.292l-0.271-0.079c0.145-1.036 0.099-2.088-0.141-3.109-0.233-1.025-0.656-2.004-1.244-2.88 0.068-0.063 0.197-0.176 0.233-0.213 0.011-0.12 0-0.244 0.125-0.375 0.265-0.251 0.595-0.453 0.989-0.699 0.193-0.109 0.365-0.181 0.557-0.323 0.043-0.031 0.1-0.083 0.147-0.12 0.317-0.249 0.391-0.692 0.161-0.979s-0.672-0.312-0.989-0.063c-0.047 0.037-0.109 0.084-0.152 0.12-0.176 0.156-0.285 0.307-0.437 0.469-0.328 0.333-0.604 0.609-0.9 0.807-0.125 0.079-0.319 0.052-0.401 0.047l-0.256 0.183c-1.457-1.532-3.421-2.484-5.525-2.672l-0.016-0.297c-0.088-0.083-0.192-0.156-0.219-0.333-0.031-0.359 0.021-0.744 0.079-1.208 0.025-0.219 0.077-0.396 0.088-0.635 0-0.053 0-0.131 0-0.188 0-0.407-0.303-0.74-0.667-0.74-0.369 0-0.667 0.333-0.667 0.74v0.021c0 0.052 0 0.119 0 0.167 0.011 0.239 0.063 0.416 0.088 0.635 0.057 0.464 0.105 0.849 0.079 1.208-0.041 0.131-0.115 0.251-0.219 0.344l-0.016 0.281c-2.12 0.172-4.099 1.12-5.552 2.672-0.083-0.057-0.161-0.115-0.24-0.172-0.119 0.016-0.239 0.052-0.395-0.036-0.297-0.204-0.573-0.48-0.901-0.813-0.151-0.161-0.26-0.312-0.437-0.463-0.043-0.037-0.104-0.084-0.147-0.12-0.135-0.104-0.296-0.167-0.463-0.177-0.209-0.011-0.401 0.079-0.532 0.235-0.229 0.292-0.156 0.729 0.161 0.984l0.011 0.005 0.141 0.109c0.187 0.141 0.359 0.213 0.552 0.323 0.396 0.251 0.724 0.453 0.989 0.699 0.099 0.109 0.12 0.301 0.131 0.385l0.213 0.187c-1.177 1.772-1.661 3.907-1.36 6.011l-0.276 0.079c-0.073 0.099-0.177 0.244-0.287 0.292-0.344 0.109-0.729 0.145-1.192 0.192-0.219 0.021-0.407 0.011-0.641 0.052-0.052 0.011-0.12 0.032-0.177 0.041l-0.004 0.005h-0.011c-0.391 0.095-0.647 0.459-0.563 0.813 0.077 0.353 0.463 0.572 0.859 0.484h0.011l0.011-0.005 0.172-0.036c0.229-0.063 0.396-0.152 0.599-0.229 0.437-0.156 0.808-0.292 1.161-0.344 0.147-0.011 0.308 0.093 0.38 0.136l0.292-0.048c0.651 2.011 2.016 3.72 3.839 4.792l-0.12 0.292c0.047 0.115 0.095 0.265 0.057 0.375-0.125 0.339-0.349 0.693-0.599 1.084-0.125 0.181-0.251 0.323-0.36 0.531-0.025 0.052-0.057 0.131-0.083 0.183-0.172 0.364-0.047 0.787 0.281 0.948 0.333 0.156 0.744-0.011 0.921-0.38 0.027-0.052 0.063-0.12 0.084-0.172 0.093-0.213 0.125-0.401 0.192-0.609 0.172-0.443 0.271-0.907 0.516-1.199 0.068-0.077 0.172-0.109 0.287-0.135l0.151-0.276c1.975 0.76 4.161 0.765 6.145 0.015l0.141 0.256c0.115 0.036 0.24 0.057 0.339 0.208 0.183 0.307 0.307 0.677 0.459 1.12 0.067 0.208 0.099 0.396 0.192 0.609 0.021 0.047 0.057 0.12 0.084 0.172 0.176 0.369 0.588 0.536 0.916 0.375 0.333-0.156 0.459-0.579 0.287-0.948-0.027-0.052-0.063-0.125-0.088-0.177-0.109-0.208-0.235-0.348-0.355-0.531-0.255-0.391-0.464-0.719-0.593-1.057-0.052-0.172 0.009-0.276 0.052-0.391-0.027-0.031-0.079-0.193-0.109-0.271 1.828-1.084 3.192-2.803 3.839-4.828 0.083 0.015 0.233 0.041 0.285 0.052 0.1-0.068 0.188-0.152 0.371-0.141 0.353 0.052 0.724 0.188 1.161 0.344 0.203 0.079 0.369 0.167 0.599 0.229 0.047 0.016 0.115 0.027 0.172 0.036l0.011 0.005h0.011c0.396 0.089 0.781-0.129 0.859-0.484 0.084-0.355-0.172-0.719-0.563-0.812zM21.864 12.932l-2.599 2.328v0.011c-0.353 0.308-0.219 0.885 0.229 1.011l0.005 0.011 3.369 0.968c0.073-0.744 0.027-1.5-0.145-2.229-0.167-0.739-0.459-1.452-0.86-2.099zM16.516 20.036c-0.104-0.197-0.313-0.317-0.537-0.312-0.208 0.011-0.4 0.125-0.5 0.312l-1.692 3.057c1.437 0.491 3 0.491 4.437 0l-1.693-3.057zM19.031 18.312c-0.119-0.025-0.244-0.005-0.359 0.048-0.281 0.135-0.412 0.473-0.287 0.76v0.005l1.344 3.249c1.287-0.817 2.265-2.047 2.776-3.484l-3.469-0.588z" />
  </symbol>
  <symbol id="icon-grafana" viewBox="0 0 16 16">
    <path d="M13.985 7.175a4.408 4.408 0 00-.138-.802 5.035 5.035 0 00-1.054-1.998 2.96 2.96 0 00-.366-.393c.198-.787-.245-1.468-.245-1.468-.764-.046-1.237.227-1.42.363-.031-.015-.062-.03-.092-.03-.122-.046-.26-.106-.397-.137-.138-.045-.275-.075-.413-.12-.137-.031-.29-.061-.443-.092-.03 0-.046 0-.076-.015C9.005 1.44 8.058 1 8.058 1 7.004 1.666 6.79 2.604 6.79 2.604s0 .015-.016.06l-.183.046c-.076.03-.168.06-.244.076-.077.03-.168.06-.245.09-.153.076-.32.152-.473.228-.153.09-.306.181-.443.272-.016-.015-.03-.015-.03-.015-1.467-.545-2.766.136-2.766.136-.122 1.544.58 2.528.733 2.71-.03.09-.06.196-.091.287a8.104 8.104 0 00-.245 1.09c0 .06-.015.106-.015.166C1.397 8.386 1 9.748 1 9.748c1.13 1.287 2.46 1.377 2.46 1.377.167.303.366.575.58.848.092.106.183.212.29.318a3.014 3.014 0 00.061 2.149c1.268.045 2.093-.545 2.261-.681.122.045.26.076.382.106.382.106.78.151 1.176.181h.49c.595.848 1.634.954 1.634.954.748-.772.779-1.544.779-1.71v-.015-.03-.03c.153-.107.305-.228.443-.35a5.37 5.37 0 00.779-.892c.015-.03.046-.06.061-.09.84.045 1.436-.515 1.436-.515-.138-.863-.642-1.287-.749-1.378l-.015-.015h-.015s-.015 0-.015-.015c0-.045.015-.106.015-.151 0-.091.015-.182.015-.288V9.4v-.166-.076-.152l-.015-.075c-.015-.091-.03-.197-.061-.288a3.506 3.506 0 00-.428-1.044 3.856 3.856 0 00-.718-.848 3.784 3.784 0 00-.901-.575 3.347 3.347 0 00-.993-.272c-.168-.015-.336-.03-.504-.03H9.37 9.204c-.092.015-.169.015-.26.03-.336.06-.642.181-.932.348-.275.166-.52.363-.718.605a2.579 2.579 0 00-.459.757 2.63 2.63 0 00-.183.817v.393c.015.137.046.273.077.394.076.258.183.485.336.666.137.197.32.348.504.485.183.12.382.212.58.272.199.06.382.076.565.076h.244c.031 0 .047 0 .062-.015.015 0 .046-.015.061-.015.046-.016.076-.016.122-.03l.23-.092a.869.869 0 00.198-.12c.015-.016.03-.03.046-.03a.129.129 0 00.015-.198c-.046-.06-.122-.075-.183-.03-.015.015-.03.015-.046.03-.046.03-.107.046-.168.06l-.183.046c-.03 0-.061.015-.092.015H8.73a1.519 1.519 0 01-.825-.378 1.452 1.452 0 01-.306-.378 1.655 1.655 0 01-.168-.485c-.015-.09-.015-.166-.015-.257v-.106-.03c0-.046.015-.091.015-.136.061-.364.26-.727.55-1 .077-.075.153-.136.23-.181.076-.06.167-.106.259-.151.092-.046.183-.076.29-.106a.993.993 0 01.306-.046h.321c.107.015.229.03.336.046.214.045.427.12.626.242.397.212.733.56.947.969.107.211.183.423.214.65.015.06.015.121.015.167v.363c0 .06-.015.121-.015.182 0 .06-.015.12-.03.181l-.046.182c-.03.121-.077.242-.123.363a3.183 3.183 0 01-.366.666 3.002 3.002 0 01-1.91 1.18c-.122.016-.26.03-.382.046h-.198c-.061 0-.138 0-.199-.015a3.637 3.637 0 01-.81-.151 4.068 4.068 0 01-.748-.303 4.098 4.098 0 01-1.696-1.695 4.398 4.398 0 01-.29-.742c-.076-.257-.107-.514-.137-.772v-.302-.091c0-.136.015-.258.03-.394s.046-.272.061-.393c.03-.137.061-.258.092-.394a5.33 5.33 0 01.275-.741c.214-.47.504-.893.855-1.226.092-.091.184-.167.275-.243.092-.075.184-.136.29-.211a5.39 5.39 0 01.306-.182c.046-.03.107-.045.153-.076a.26.26 0 01.076-.03.26.26 0 01.077-.03c.107-.046.229-.091.336-.121.03-.015.06-.015.091-.03.03-.016.061-.016.092-.03.061-.016.122-.031.168-.046.03-.015.061-.015.092-.015.03 0 .06-.016.091-.016.03 0 .061-.015.092-.015l.046-.015h.046c.03 0 .06-.015.091-.015.03 0 .061-.015.107-.015.03 0 .077-.015.107-.015h.764c.23.015.443.03.657.075.428.076.84.212 1.207.394.366.182.702.393.977.636l.046.045.046.045c.03.03.061.061.107.091l.092.091.091.09c.123.122.23.258.336.394.199.258.367.515.49.772.014.015.014.03.03.046.015.015.015.03.015.045l.046.09.046.092.045.09c.046.122.092.228.123.333.06.167.107.318.137.455.015.045.061.09.122.075a.104.104 0 00.107-.106c.092-.227.092-.393.077-.575z" />
  </symbol>
  <symbol id="icon-powershell" viewBox="0 0 512 512">
    <path d="M77.554,296.055l101.189-39.863v-0.611L77.554,215.413v-44.464l154.539,68.379v32.807L77.554,340.514 V296.055z M434.446,343.887v39.863H251.7v-39.863H434.446z M468.917,0.5H43.083C19.662,0.5,0.5,19.663,0.5,43.083v425.833 c0,23.421,19.162,42.583,42.583,42.583h425.834c23.421,0,42.583-19.162,42.583-42.583V43.083C511.5,19.663,492.338,0.5,468.917,0.5 z M468.917,468.917H43.083V106.958h425.834V468.917z" />
  </symbol>
  <symbol id="icon-dotnet" viewBox="0 0 32 32">
    <path d="M8.579 10.956c0.041-0.019 0.083-0.037 0.125-0.053-0.041 0.016-0.083 0.035-0.125 0.053zM2.496 22.174h0.126c0.372 0 0.477 0 0.905 0h0.337c0.026 0 0.052 0 0.078 0 0.029 0 0.060 0 0.091 0 0 0 0.005 0 0.006 0 0.013 0 0.026 0 0.038 0 0.005 0 0.005 0 0.009 0 0.005 0 0.011 0.006 0.017 0.005 2.378-0.122 3.48-1.352 4.034-3.124 0.431-1.375 0.784-2.532 1.094-3.504-0 0-0 0.001-0 0.001 0.004-0.012 0.007-0.023 0.011-0.035 0.747-1.048 1.519-1.953 2.215-2.687v0c0 0 0.016 0 0.016-0 1.065 3.257 1.476 9.068 4.591 9.068 0.126 0 0.257 0.003 0.384-0.010-0.127 0.013-0.25 0.030-0.376 0.030h2.474c-0.175 0-0.341-0.026-0.501-0.059-0.101-0.021-0.199-0.052-0.295-0.085 0.096 0.032 0.194 0.057 0.296 0.077 0.16 0.033 0.326 0.048 0.5 0.048 0.459 0 0.842-0.035 1.176-0.144-0.334 0.109-0.717 0.162-1.176 0.162h2.42c0 0 0 0 0 0 0.021 0 0.042 0 0.062 0 0 0 0 0 0 0s0.001 0 0.002 0l0.001-0.005 0.913-0.009c-0.117 0-0.226-0.021-0.331-0.056 0.001-0.002 0.003-0.003 0.004-0.005 0.103 0.031 0.21 0.037 0.325 0.037 2.403 0 4.826-4.315 8.835-11.483h-1.574l0.001 0.064h-0.293c-1.478 2.624-2.511 4.866-3.387 6.658 0.877-1.794 1.909-4.034 3.386-6.658h-2.161c-0.041 0-0.082 0-0.123 0-0.039 0-0.078 0-0.116 0h-0.005c-0.080 0-0.157-0.011-0.234-0.006-0 0.001-0.001-0.007-0.001-0.005-2.321 0.14-3.407 1.318-3.953 3.067-0.956 3.056-1.535 5.034-2.092 6.297-0 0 0-0.001-0-0 0 0.003-0.002 0.003-0.002 0.004v-0.003c-0.256 0.25-0.522 0.478-0.782 0.685-0.136 0.108-0.272 0.21-0.409 0.306 0.114 0.137 0.231 0.265 0.354 0.382 0.186 0.181 0.385 0.333 0.602 0.45-0 0-0.001 0-0.001 0-0.217-0.117-0.416-0.269-0.603-0.45-0.123-0.117-0.239-0.245-0.354-0.382 0 0 0 0 0 0 0.137-0.096 0.272-0.199 0.408-0.307-0.749-1.659-1.184-4.478-1.991-6.673 0.807 2.194 1.243 5.014 1.991 6.673 0.26-0.207 0.52-0.435 0.781-0.685-1.082-3.242-1.47-9.136-4.606-9.136-0.221 0-0.444 0.021-0.666 0.061 0.222-0.041 0.445-0.062 0.666-0.062l-1.233-0.017c0.196 0 0.381 0.055 0.557 0.055-0 0-0 0-0 0-0.176 0-0.361-0.055-0.556-0.055-0.017 0-0.034-0.004-0.051-0.003 0.017-0 0.034-0.006 0.051-0.006h-4.96c-0.028 0-0.056-0.004-0.085-0.004-2.706 0-6.435 5.059-8.115 11.524 0 0 0.122 0 0.323 0 0 0 0 0 0 0 0.232 0 0.95 0 0.95 0zM26.161 10.675c-0 0-0 0-0 0-0.807 0.254-1.401 0.694-1.842 1.277 0.441-0.583 1.034-1.023 1.842-1.277zM22.369 21.541c-0.008 0.004-0.015 0.008-0.023 0.012-0.011 0.006-0.023 0.011-0.034 0.017-0.001 0-0.002 0.001-0.002 0.001 0.020-0.010 0.039-0.020 0.059-0.029zM22.040 21.687c0.005-0.004 0.010-0.004 0.016-0.006-0.005 0.003-0.010 0.004-0.015 0.006-0.011 0.005-0.022 0.008-0.033 0.012 0.011-0.004 0.021-0.008 0.032-0.012zM22.001 21.703c0 0 0-0 0-0s-0.001 0-0.001 0c0-0 0-0 0.001-0zM21.751 21.787c0.019-0.006 0.036-0.011 0.054-0.016 0.009-0.004 0.018-0.007 0.027-0.009 0.011-0.004 0.021-0.007 0.030-0.011 0.011-0.004 0.022-0.006 0.031-0.010s0.017-0.006 0.026-0.010c0.021-0.008 0.042-0.014 0.064-0.022 0.003 0 0.006-0.001 0.008-0.003-0.002 0.001-0.005 0.002-0.007 0.003-0.021 0.008-0.042 0.014-0.063 0.022-0.009 0.004-0.018 0.006-0.026 0.009-0.009 0.004-0.020 0.007-0.031 0.010-0.009 0.004-0.020 0.006-0.031 0.011-0.009 0.004-0.018 0.005-0.027 0.009-0.019 0.005-0.036 0.010-0.054 0.016-0.001 0-0.003 0.001-0.004 0.001 0.001-0 0.002-0.001 0.003-0.001zM8.704 10.91v-0.008c0 0 0.006 0.008 0.007 0.008h0c-0.053 0-0.105 0.037-0.157 0.059 0.008-0.004 0.017-0.009 0.025-0.012-0.042 0.018-0.084 0.037-0.126 0.057-0.022 0.011-0.045 0.021-0.067 0.033zM8.832 10.846v0zM9.191 10.738c-0.007 0.004-0.012 0.019-0.018 0.019-0.044 0.011-0.088 0.023-0.132 0.035-0.005 0-0.009 0.004-0.015 0.005-0.012 0.003-0.024 0.007-0.037 0.011 0.013-0.004 0.025-0.011 0.037-0.013 0.006 0 0.011-0.005 0.015-0.005 0.044-0.012 0.088-0.024 0.132-0.035 0.006 0 0.011-0.018 0.018-0.018 0.012-0.004 0.024-0.020 0.037-0.021-0.013 0.001-0.025 0.021-0.037 0.023zM9.249 10.732c-0.006 0.004-0.013 0.008-0.019 0.010 0.006-0.004 0.012-0.011 0.019-0.013 0.013-0.004 0.025-0.014 0.039-0.014-0.014 0-0.026 0.015-0.039 0.017zM9.732 10.716c-0.024-0.004-0.047-0.002-0.070-0.002-0.001 0-0.002 0-0.002 0 0.023 0 0.046-0.003 0.070-0 0.003 0 0.005-0.001 0.008-0.001-0.002 0.001-0.003 0.003-0.006 0.003zM9.794 10.685c-0.058 0-0.115 0.012-0.174 0.016 0.008 0 0.016 0.010 0.024 0.012-0.015-0.002-0.030-0.011-0.045-0.012 0.007-0.001 0.014-0.005 0.021-0.005-0.004-0-0.004-0.002-0.008-0.002-0.005-0.004-0.012-0.006-0.012-0.006v0.005c-0.064 0.004-0.060 0.005-0.088 0.008l-0.004-0.005c-0.008 0-0.014 0.004-0.021 0.004-0.011 0.004-0.024 0.004-0.036 0.005-0.007 0-0.014 0-0.021 0.004-0.013 0.004-0.025 0.006-0.037 0.008-0.001 0-0.002 0.001-0.003 0.001 0.001 0 0.002 0 0.003 0 0.013 0 0.024-0.006 0.037-0.009 0.007 0 0.014-0.005 0.021-0.005 0.012 0 0.024-0.004 0.036-0.006 0.006 0 0.012-0 0.020-0.004 0.024-0.003 0.048-0.005 0.072-0.007 0.005 0 0.009 0.001 0.014 0.001 0.068-0.006 0.134-0.008 0.201-0.008zM9.955 10.755c-0.045-0.012-0.091-0.021-0.137-0.029-0.004 0-0.008-0.002-0.012-0.003 0.003 0.001 0.007 0.002 0.011 0.002 0.046 0.009 0.092 0.018 0.137 0.030 0.001 0 0.003 0.001 0.004 0.001-0.001-0-0.001-0-0.002-0zM10.934 11.537v0c-0 0-0 0.001-0.001 0.001-0.141-0.238-0.296-0.438-0.468-0.584 0.002 0.001 0.005 0.003 0.007 0.004 0.169 0.147 0.321 0.344 0.461 0.58 0-0 0 0-0 0zM11.154 11.961v0zM13.665 10.744c0.18-0.034 0.361-0.056 0.539-0.064-0.179 0.009-0.359 0.030-0.54 0.065zM11.904 12.446c-0.001-0.003-0.003-0.005-0.004-0.008 0.001 0.003 0.003 0.005 0.004 0.008v0zM14.209 10.947c-0.284 0.106-0.569 0.242-0.854 0.408 0.285-0.166 0.57-0.302 0.854-0.408 0.194-0.072 0.387-0.129 0.58-0.172-0.194 0.043-0.387 0.1-0.58 0.172zM14.94 10.743v0 0 0zM17.104 21.758c0.117-0.031 0.235-0.068 0.352-0.109 0 0 0 0 0 0-0.118 0.041-0.235 0.077-0.352 0.109zM20.136 21.561c-0 0-0 0-0 0-0.007 0.004-0.014 0.007-0.021 0.011 0.007-0.004 0.015-0.008 0.022-0.012zM20.762 21.884c-0.285-0.034-0.54-0.118-0.773-0.244 0.233 0.126 0.488 0.21 0.773 0.244 0.042 0.004 0.083 0.008 0.126 0.011-0.043-0.003-0.085-0.007-0.126-0.011zM20.742 21.035l0.001-0.005c0-0 0-0.001 0.001-0.001 0.157 0.267 0.331 0.487 0.527 0.639-0.196-0.149-0.371-0.364-0.528-0.633zM21.188 21.895c-0.008 0.004-0.015 0.004-0.023 0.004-0.001 0-0.001 0-0.002 0 0.008 0 0.016 0 0.023-0.004 0.015 0 0.030 0 0.046-0.004 0.001 0 0.002 0 0.002 0-0.016 0.004-0.031 0.004-0.046 0.004zM21.377 21.874c-0.017 0.003-0.035 0.004-0.053 0.008-0.005 0-0.010 0.004-0.015 0.004-0 0-0.004 0-0.004 0-0.016 0.002-0.033 0.005-0.049 0.005-0.001 0-0.002 0-0.002 0 0.016 0 0.033-0.004 0.049-0.005h0.004c0.005 0 0.010-0.004 0.015-0.004 0.018-0.004 0.036-0.006 0.053-0.008 0.002 0 0.003 0 0.004 0-0.001 0-0.001 0-0.002 0z" />
  </symbol>
  <symbol id="icon-nodejs" viewBox="0 0 24 24">
    <path d="M12 2L3 7v10l9 5 9-5V7L12 2zm0 17.03l-7-3.88V7.85l7-3.88 7 3.88v7.29l-7 3.88z" />
  </symbol>
  <symbol id="icon-windows" viewBox="0 0 30 30">
    <path d="M13.875 7.719l-2.281 7.906s-2.594-1.813-4.5-1.625c-1.875 0.188-4.406 1.125-4.406 1.125l2.313-7.969s4.781-2.563 8.875 0.563zM12.813 16.375l2.281-7.844c0.688 0.469 1.906 1.313 3.875 1.563 1.969 0.219 5.031-1.031 5.031-1.031l-2.281 7.906c-0.344 0.125-1.781 0.938-4.406 1.094-2.656 0.156-4.5-1.688-4.5-1.688zM0 24.469l2.281-7.969s2.563-1.188 4.719-1.031c2.125 0.125 3.844 1.313 4.188 1.594l-2.281 7.969s-2.625-1.719-4.438-1.563-3.406 0.469-4.469 1zM10.125 25.719l2.281-7.906s2.438 1.594 4.031 1.531c1.594-0.031 2.688-0.125 4.844-0.969h0.031c-0.156 0.406-2.281 7.844-2.281 7.844s-2.5 1.188-4.813 1.063c-2.281-0.094-3.656-1.406-4.094-1.563z" />
  </symbol>
  <symbol id="icon-linux" viewBox="0 0 20 20">
    <path d="M4.53918 2.40715C4.82145 1.0075 6.06066 0 7.49996 0C8.93926 0 10.1785 1.0075 10.4607 2.40715L10.798 4.07944C10.9743 4.9539 11.3217 5.78562 11.8205 6.52763L12.4009 7.39103C12.7631 7.92978 12.9999 8.5385 13.0979 9.17323C13.6747 9.22167 14.1803 9.58851 14.398 10.1283L14.8897 11.3474C15.1376 11.962 14.9583 12.665 14.4455 13.0887L12.5614 14.6458C12.0128 15.0992 11.2219 15.1193 10.6506 14.6944L9.89192 14.1301C9.88189 14.1227 9.87197 14.1151 9.86216 14.1074C9.48973 14.2075 9.09793 14.261 8.69355 14.261H6.30637C5.90201 14.261 5.51023 14.2076 5.13782 14.1074C5.12802 14.1151 5.11811 14.1227 5.10808 14.1301L4.34942 14.6944C3.77811 15.1193 2.98725 15.0992 2.43863 14.6458L0.55446 13.0887C0.0417175 12.665 -0.1376 11.962 0.110281 11.3474L0.602025 10.1283C0.819715 9.58854 1.32527 9.2217 1.90198 9.17324C2 8.5385 2.2368 7.92978 2.59897 7.39103L3.17938 6.52763C3.67818 5.78562 4.02557 4.9539 4.20193 4.07944L4.53918 2.40715ZM10.8445 9.47585C10.6345 9.63293 10.4642 9.84382 10.3561 10.0938L9.58799 11.8713C9.20026 12.0979 8.75209 12.2237 8.28465 12.2237H6.7153C6.24789 12.2237 5.79975 12.0979 5.41203 11.8714L4.64386 10.0938C4.53581 9.8438 4.36552 9.6329 4.15546 9.47582C4.18121 9.15355 4.2689 8.83503 4.41853 8.53826L5.67678 6.04259L5.68433 6.05007C6.68715 7.04458 8.31304 7.04458 9.31585 6.05007L9.32324 6.04274L10.5814 8.53825C10.7311 8.83504 10.8187 9.15357 10.8445 9.47585ZM9.04068 4.26906V3.05592H8.01353V3.85713C8.23151 3.90123 8.44506 3.97371 8.64848 4.07458L9.04068 4.26906ZM6.98638 3.85718V3.05592H5.95923V4.26919L6.3517 4.07458C6.55504 3.97375 6.7685 3.90129 6.98638 3.85718ZM2.03255 10.1864C1.82255 10.1864 1.6337 10.3132 1.55571 10.5066L1.06397 11.7257C0.981339 11.9306 1.04111 12.1649 1.21203 12.3062L3.0962 13.8633C3.27907 14.0144 3.54269 14.0211 3.73313 13.8795L4.49179 13.3152C4.6813 13.1743 4.74901 12.923 4.6557 12.7071L3.69976 10.4951C3.61884 10.3078 3.43316 10.1864 3.22771 10.1864H2.03255ZM13.4443 10.5066C13.3663 10.3132 13.1775 10.1864 12.9674 10.1864H11.7723C11.5668 10.1864 11.3811 10.3078 11.3002 10.4951L10.3443 12.7071C10.251 12.923 10.3187 13.1743 10.5082 13.3152L11.2669 13.8795C11.4573 14.0211 11.7209 14.0144 11.9038 13.8633L13.788 12.3062C13.9589 12.1649 14.0187 11.9306 13.936 11.7257L13.4443 10.5066Z" />
  </symbol>
  <symbol id="icon-containers" viewBox="0 0 20 20">
    <path d="M5.46619 2.00322C5.46619 1.44916 5.91535 1 6.46941 1H9.47907C10.0331 1 10.4823 1.44915 10.4823 2.00322V5.01288C10.4823 5.09948 10.4713 5.18352 10.4507 5.26368C10.4713 5.34385 10.4823 5.42789 10.4823 5.51449V8.02254H11.7363V6.0161C11.7363 5.60055 12.0732 5.26368 12.4887 5.26368C12.9043 5.26368 13.2411 5.60055 13.2411 6.0161V8.02254H15.2476C15.6631 8.02254 16 8.35941 16 8.77495C16 9.1905 15.6631 9.52737 15.2476 9.52737H13.2113C13.0634 11.3518 12.3727 12.8078 11.2779 13.8375C10.045 14.9972 8.37374 15.5467 6.59481 15.5467C4.97058 15.5467 3.43674 15.0891 2.24224 14.1255C1.03896 13.1549 0.236443 11.7155 0.0125343 9.86728C-0.115917 8.80699 0.763545 8.02254 1.70412 8.02254H1.95492V5.51449C1.95492 4.96043 2.40408 4.51127 2.95814 4.51127H5.46619V2.00322ZM5.46619 6.0161H3.45975V8.02254H5.46619V6.0161ZM1.70412 9.52737C1.63196 9.52737 1.57447 9.55683 1.54064 9.59191C1.51066 9.62299 1.50235 9.65252 1.50644 9.68629C1.68777 11.1831 2.31696 12.2524 3.18705 12.9543C4.06593 13.6632 5.24713 14.0419 6.59481 14.0419C8.071 14.0419 9.34667 13.5882 10.2469 12.7414C11.0115 12.0222 11.5598 10.9686 11.7007 9.52737H1.70412ZM6.97102 8.02254H8.97746V6.0161H6.97102V8.02254ZM6.97102 4.51127H8.97746V2.50483H6.97102V4.51127Z" />
  </symbol>
  <symbol id="icon-nginx" viewBox="0 0 32 32">
    <path d="M16 0l-13.86 8v16l13.86 8 13.86-8v-16zM24 22.12c0 0.943-0.86 1.719-2.036 1.719-0.844 0-1.803-0.339-2.401-1.079l-8-9.52v8.88c0 0.959-0.76 1.719-1.703 1.719h-0.1c-0.963 0-1.719-0.803-1.719-1.719v-12.24c0-0.943 0.839-1.719 2-1.719 0.86 0 1.839 0.339 2.437 1.079l7.959 9.52v-8.88c0-0.963 0.803-1.719 1.724-1.719h0.099c0.959 0 1.719 0.797 1.719 1.719v12.24z" />
  </symbol>
  <symbol id="icon-sql-server" viewBox="0 0 24 24">
    <path d="M4.25 7.00003C4.25 7.41424 4.58579 7.75003 5 7.75003C5.41421 7.75003 5.75 7.41424 5.75 7.00003H4.25ZM6.1 5.88903L5.81451 5.19549C5.80534 5.19927 5.79623 5.20323 5.78721 5.20737L6.1 5.88903ZM9.033 5.15203L9.10927 5.89814C9.11457 5.8976 9.11986 5.897 9.12515 5.89635L9.033 5.15203ZM11.533 5.00003L11.5317 5.75003H11.533V5.00003ZM12.466 5.00003V5.75003L12.4673 5.75003L12.466 5.00003ZM14.966 5.15203L14.8739 5.89635C14.8792 5.89701 14.8845 5.89761 14.8898 5.89815L14.966 5.15203ZM17.9 5.88903L18.2128 5.20737C18.2038 5.20322 18.1946 5.19926 18.1855 5.19548L17.9 5.88903ZM18.25 7.00003C18.25 7.41424 18.5858 7.75003 19 7.75003C19.4142 7.75003 19.75 7.41424 19.75 7.00003H18.25ZM5.75 7.00003C5.75 6.58582 5.41421 6.25003 5 6.25003C4.58579 6.25003 4.25 6.58582 4.25 7.00003H5.75ZM6.914 8.41403L6.69463 9.13123C6.70173 9.1334 6.70887 9.13547 6.71603 9.13743L6.914 8.41403ZM11.533 9.00003V8.24995L11.5219 8.25011L11.533 9.00003ZM12.466 9.00003L12.4771 8.25003H12.466V9.00003ZM17.086 8.41403L17.284 9.13743C17.2911 9.13547 17.2983 9.1334 17.3054 9.13123L17.086 8.41403ZM19.75 7.00003C19.75 6.58582 19.4142 6.25003 19 6.25003C18.5858 6.25003 18.25 6.58582 18.25 7.00003H19.75ZM5.75 7.00003C5.75 6.58582 5.41421 6.25003 5 6.25003C4.58579 6.25003 4.25 6.58582 4.25 7.00003H5.75ZM4.25 12C4.25 12.4142 4.58579 12.75 5 12.75C5.41421 12.75 5.75 12.4142 5.75 12H4.25ZM19.75 7.00003C19.75 6.58582 19.4142 6.25003 19 6.25003C18.5858 6.25003 18.25 6.58582 18.25 7.00003H19.75ZM18.25 12C18.25 12.4142 18.5858 12.75 19 12.75C19.4142 12.75 19.75 12.4142 19.75 12H18.25ZM5.75 12C5.75 11.5858 5.41421 11.25 5 11.25C4.58579 11.25 4.25 11.5858 4.25 12H5.75ZM6.914 13.414L6.69463 14.1312C6.70173 14.1334 6.70887 14.1355 6.71603 14.1374L6.914 13.414ZM11.533 14V13.2499L11.5219 13.2501L11.533 14ZM12.466 14L12.4771 13.25H12.466V14ZM17.086 13.414L17.284 14.1374C17.2911 14.1355 17.2983 14.1334 17.3054 14.1312L17.086 13.414ZM19.75 12C19.75 11.5858 19.4142 11.25 19 11.25C18.5858 11.25 18.25 11.5858 18.25 12H19.75ZM5.75 12C5.75 11.5858 5.41421 11.25 5 11.25C4.58579 11.25 4.25 11.5858 4.25 12H5.75ZM6.914 18.414L6.69463 19.1312C6.70173 19.1334 6.70887 19.1355 6.71603 19.1374L6.914 18.414ZM11.533 19V18.2499L11.5219 18.2501L11.533 19ZM12.466 19L12.4771 18.25H12.466V19ZM17.086 18.414L17.284 19.1374C17.2911 19.1355 17.2983 19.1334 17.3054 19.1312L17.086 18.414ZM19.75 12C19.75 11.5858 19.4142 11.25 19 11.25C18.5858 11.25 18.25 11.5858 18.25 12H19.75ZM5.75 7.00003C5.75 7.05846 5.71815 7.04218 5.81323 6.94645C5.91209 6.84693 6.09951 6.71444 6.41279 6.57069L5.78721 5.20737C5.38349 5.39262 5.02091 5.61563 4.74902 5.88936C4.47335 6.16688 4.25 6.5416 4.25 7.00003H5.75ZM6.38549 6.58257C7.25569 6.22436 8.1731 5.99384 9.10927 5.89814L8.95673 4.40592C7.87675 4.51631 6.8184 4.78225 5.81451 5.19549L6.38549 6.58257ZM9.12515 5.89635C9.9235 5.79751 10.7273 5.74864 11.5317 5.75003L11.5343 4.25003C10.6674 4.24854 9.80121 4.3012 8.94085 4.40771L9.12515 5.89635ZM11.533 5.75003H12.466V4.25003H11.533V5.75003ZM12.4673 5.75003C13.2717 5.74864 14.0755 5.79751 14.8739 5.89635L15.0581 4.40771C14.1978 4.3012 13.3316 4.24854 12.4647 4.25003L12.4673 5.75003ZM14.8898 5.89815C15.8263 5.99376 16.744 6.22428 17.6145 6.58258L18.1855 5.19548C17.1812 4.78214 16.1225 4.5162 15.0422 4.40591L14.8898 5.89815ZM17.5872 6.57069C17.9005 6.71444 18.0879 6.84693 18.1868 6.94645C18.2819 7.04218 18.25 7.05846 18.25 7.00003H19.75C19.75 6.5416 19.5266 6.16688 19.251 5.88936C18.9791 5.61563 18.6165 5.39262 18.2128 5.20737L17.5872 6.57069ZM4.25 7.00003C4.25 7.61363 4.646 8.06864 5.05149 8.36831C5.4717 8.67886 6.03924 8.93076 6.69463 9.13123L7.13337 7.69683C6.56276 7.52229 6.1733 7.3322 5.94301 7.162C5.698 6.98092 5.75 6.91643 5.75 7.00003H4.25ZM6.71603 9.13743C8.28853 9.56776 9.91391 9.77397 11.5441 9.74995L11.5219 8.25011C10.033 8.27205 8.54831 8.0837 7.11197 7.69063L6.71603 9.13743ZM11.533 9.75003H12.466V8.25003H11.533V9.75003ZM12.4549 9.74995C14.0854 9.77407 15.7111 9.56786 17.284 9.13743L16.888 7.69063C15.4514 8.08379 13.9664 8.27214 12.4771 8.25011L12.4549 9.74995ZM17.3054 9.13123C17.9605 8.93084 18.5281 8.67923 18.9484 8.3688C19.3542 8.069 19.75 7.61396 19.75 7.00003H18.25C18.25 6.9171 18.3018 6.98156 18.0571 7.16226C17.8269 7.33233 17.4375 7.52222 16.8666 7.69683L17.3054 9.13123ZM4.25 7.00003V12H5.75V7.00003H4.25ZM18.25 7.00003V12H19.75V7.00003H18.25ZM4.25 12C4.25 12.6136 4.646 13.0686 5.05149 13.3683C5.4717 13.6789 6.03924 13.9308 6.69463 14.1312L7.13337 12.6968C6.56276 12.5223 6.1733 12.3322 5.94301 12.162C5.698 11.9809 5.75 11.9164 5.75 12H4.25ZM6.71603 14.1374C8.28853 14.5678 9.91391 14.774 11.5441 14.7499L11.5219 13.2501C10.033 13.2721 8.54831 13.0837 7.11197 12.6906L6.71603 14.1374ZM11.533 14.75H12.466V13.25H11.533V14.75ZM12.4549 14.7499C14.0854 14.7741 15.7111 14.5679 17.284 14.1374L16.888 12.6906C15.4514 13.0838 13.9664 13.2721 12.4771 13.2501L12.4549 14.7499ZM17.3054 14.1312C17.9605 13.9308 18.5281 13.6792 18.9484 13.3688C19.3542 13.069 19.75 12.614 19.75 12H18.25C18.25 11.9171 18.3018 11.9816 18.0571 12.1623C17.8269 12.3323 17.4375 12.5222 16.8666 12.6968L17.3054 14.1312ZM4.25 12V17H5.75V12H4.25ZM4.25 17C4.25 17.6136 4.646 18.0686 5.05149 18.3683C5.4717 18.6789 6.03924 18.9308 6.69463 19.1312L7.13337 17.6968C6.56276 17.5223 6.1733 17.3322 5.94301 17.162C5.698 16.9809 5.75 16.9164 5.75 17H4.25ZM6.71603 19.1374C8.28853 19.5678 9.91391 19.774 11.5441 19.7499L11.5219 18.2501C10.033 18.2721 8.54831 18.0837 7.11197 17.6906L6.71603 19.1374ZM11.533 19.75H12.466V18.25H11.533V19.75ZM12.4549 19.7499C14.0854 19.7741 15.7111 19.5679 17.284 19.1374L16.888 17.6906C15.4514 18.0838 13.9664 18.2721 12.4771 18.2501L12.4549 19.7499ZM17.3054 19.1312C17.9608 18.9308 18.5283 18.6789 18.9485 18.3683C19.354 18.0686 19.75 17.6136 19.75 17H18.25C18.25 16.9164 18.302 16.9809 18.057 17.162C17.8267 17.3322 17.4372 17.5223 16.8666 17.6968L17.3054 19.1312ZM19.75 17V12H18.25V17H19.75Z" />
  </symbol>
  <symbol id="icon-oauth" viewBox="0 0 16 16">
    <path d="M12.549 1h-4.55l1.407 4.38h4.548l-3.68 2.61 1.406 4.405c2.37-1.725 3.143-4.336 2.274-7.016L12.55 1zM2.045 5.38h4.55L8 1H3.45L2.045 5.38c-.868 2.68-.094 5.29 2.275 7.015L5.725 7.99l-3.68-2.612zm2.275 7.015L8 15l3.68-2.605L8 9.745l-3.68 2.65z" />
  </symbol>
  <symbol id="icon-api" viewBox="0 0 32 32">
    <path d="M16 0c-8.823 0-16 7.177-16 16s7.177 16 16 16c8.823 0 16-7.177 16-16s-7.177-16-16-16zM16 1.527c7.995 0 14.473 6.479 14.473 14.473s-6.479 14.473-14.473 14.473c-7.995 0-14.473-6.479-14.473-14.473s6.479-14.473 14.473-14.473zM11.161 7.823c-0.188-0.005-0.375 0-0.568 0.005-1.307 0.079-2.093 0.693-2.312 1.964-0.151 0.891-0.125 1.796-0.188 2.692-0.020 0.464-0.067 0.928-0.156 1.38-0.177 0.813-0.525 1.068-1.353 1.109-0.111 0.011-0.22 0.032-0.324 0.057v1.948c1.5 0.073 1.704 0.605 1.823 2.172 0.048 0.573-0.015 1.147 0.021 1.719 0.027 0.543 0.099 1.079 0.208 1.6 0.344 1.432 1.745 1.911 3.433 1.624v-1.713c-0.272 0-0.511 0.005-0.74 0-0.579-0.016-0.792-0.161-0.844-0.713-0.079-0.713-0.057-1.437-0.099-2.156-0.089-1.339-0.235-2.651-1.541-3.5 0.672-0.495 1.161-1.084 1.312-1.865 0.109-0.547 0.177-1.099 0.219-1.651s-0.025-1.12 0.021-1.667c0.077-0.885 0.135-1.249 1.197-1.213 0.161 0 0.317-0.021 0.495-0.036v-1.745c-0.213 0-0.411-0.005-0.604-0.011zM21.287 7.839c-0.365-0.011-0.729 0.016-1.089 0.079v1.697c0.329 0 0.584 0 0.833 0.005 0.439 0.005 0.772 0.177 0.813 0.661 0.041 0.443 0.041 0.891 0.083 1.339 0.089 0.896 0.136 1.796 0.292 2.677 0.136 0.724 0.636 1.265 1.255 1.713-1.088 0.729-1.411 1.776-1.463 2.953-0.032 0.801-0.052 1.615-0.093 2.427-0.037 0.74-0.297 0.979-1.043 0.995-0.208 0.011-0.411 0.027-0.64 0.041v1.74c0.432 0 0.833 0.027 1.235 0 1.239-0.073 1.995-0.677 2.239-1.885 0.104-0.661 0.167-1.333 0.183-2.005 0.041-0.615 0.036-1.235 0.099-1.844 0.093-0.953 0.532-1.349 1.484-1.411 0.089-0.011 0.177-0.032 0.267-0.057v-1.953c-0.161-0.021-0.271-0.037-0.391-0.041-0.713-0.032-1.068-0.272-1.251-0.948-0.109-0.433-0.177-0.876-0.197-1.324-0.052-0.823-0.047-1.656-0.099-2.479-0.109-1.588-1.063-2.339-2.516-2.38zM12.099 14.875c-1.432 0-1.536 2.109-0.115 2.245h0.079c0.609 0.036 1.131-0.427 1.167-1.037v-0.061c0.011-0.62-0.484-1.136-1.104-1.147zM15.979 14.875c-0.593-0.020-1.093 0.448-1.115 1.043 0 0.036 0 0.067 0.005 0.104 0 0.672 0.459 1.099 1.147 1.099 0.677 0 1.104-0.443 1.104-1.136-0.005-0.672-0.459-1.115-1.141-1.109zM19.927 14.875c-0.624-0.011-1.145 0.485-1.167 1.115 0 0.625 0.505 1.131 1.136 1.131h0.011c0.567 0.099 1.135-0.448 1.172-1.104 0.031-0.609-0.521-1.141-1.152-1.141z" />
  </symbol>
  <symbol id="icon-sonarqube" viewBox="0 0 50 50">
    <path d="M36.455,17.056h-0.174c-1.577-6-6.885-10.113-13.207-10.113s-11.63,4.113-13.207,10.113H9.693 C4.381,17.056,0,21.676,0,26.989v2.762c0,5.312,4.381,9.306,9.693,9.306h26.762c5.312,0,9.545-3.994,9.545-9.307v-2.762 C46,21.676,41.768,17.056,36.455,17.056z M31.738,22.583l-9.627,9.628c-0.851,0.852-2.229,0.852-3.08,0l-4.772-4.771 c-0.851-0.852-0.851-2.229,0.001-3.08c0.85-0.852,2.229-0.852,3.078,0l2.845,2.844c0.103,0.104,0.243,0.161,0.389,0.161 s0.286-0.06,0.389-0.161l7.699-7.7c0.408-0.408,0.962-0.638,1.54-0.638c0.577,0,1.132,0.229,1.54,0.639 C32.59,20.354,32.59,21.733,31.738,22.583z" />
  </symbol>
</svg>
