<svg xmlns="http://www.w3.org/2000/svg" style="display: none;">
  <symbol id="icon-azure" viewBox="0 0 16 16">
    <path
                                d="M15.3702 13.6799L11.3702 1.67989C11.3006 1.47291 11.1652 1.29438 10.9846 1.17159C10.804 1.0488 10.5882 0.988513 10.3702 0.999896H5.63017C5.42052 0.999354 5.21598 1.0647 5.04551 1.18672C4.87504 1.30875 4.74724 1.48127 4.68015 1.67989L0.630165 13.6799C0.577646 13.8346 0.56382 13.9998 0.589943 14.1611C0.616066 14.3225 0.681335 14.4749 0.780007 14.6052C0.878678 14.7354 1.00778 14.8395 1.15598 14.9083C1.30419 14.9771 1.46699 15.0086 1.63017 14.9999H4.56016C4.76809 14.9984 4.97035 14.932 5.13883 14.8101C5.30731 14.6883 5.43363 14.5169 5.50016 14.3199L6.11015 12.5399L9.11015 14.8099C9.28448 14.9362 9.49495 15.0028 9.71018 14.9999H14.3902C14.5517 15.0052 14.7121 14.9712 14.8576 14.901C15.0032 14.8307 15.1295 14.7263 15.2259 14.5965C15.3222 14.4668 15.3856 14.3156 15.4107 14.156C15.4359 13.9963 15.422 13.833 15.3702 13.6799ZM9.75016 14.3399C9.67748 14.3399 9.60693 14.3153 9.55015 14.2699L3.90018 10.0799L3.81016 10.0099H6.81016L6.89017 9.79988L7.89017 7.26988L10.1302 13.8999C10.1482 13.9555 10.1515 14.0148 10.1399 14.072C10.1283 14.1293 10.1022 14.1826 10.064 14.2269C10.0258 14.2711 9.97689 14.3047 9.92191 14.3245C9.86694 14.3443 9.80778 14.3496 9.75016 14.3399V14.3399ZM14.4201 14.3399H10.7002C10.7749 14.1262 10.7749 13.8935 10.7002 13.6799L6.65018 1.67989H10.3702C10.4408 1.68024 10.5095 1.70258 10.5669 1.74379C10.6242 1.78501 10.6673 1.84308 10.6902 1.9099L14.7402 13.9099C14.7538 13.9597 14.756 14.012 14.7464 14.0628C14.7369 14.1136 14.7159 14.1615 14.6851 14.203C14.6542 14.2444 14.6144 14.2783 14.5685 14.302C14.5226 14.3257 14.4718 14.3387 14.4201 14.3399V14.3399Z" />
  </symbol>
  <symbol id="icon-azure-devops" viewBox="0 0 16 16">
    <path
                                d="M5.68623 0H10.3138L12.178 3.27835L13.9282 2.26789L14.4282 3.13392L13.3301 7.232L9.23203 6.13392L8.73203 5.26789L10.4459 4.27837L9.15033 2L6.84966 2L6.29552 2.97447L4.56343 1.97445L5.68623 0Z" />
                            <path
                                d="M13.1649 9.05964L13.7039 10.0076L12.6055 12H9.99998L9.99998 9.99995H8.99998L5.99998 12.9999L8.99998 15.9999H9.99998L9.99998 14H13.7868L15.996 9.99242L14.8969 8.05962L13.1649 9.05964Z" />
                            <path
                                d="M3.39445 12H4.49998V14H2.21325L0.00390625 9.99242L1.8446 6.75554L0.0717772 5.732L0.571776 4.86598L4.66986 3.7679L5.76793 7.86598L5.26793 8.732L3.57669 7.75556L2.29605 10.0076L3.39445 12Z" />
  </symbol>
  <symbol id="icon-azure-yaml-build-pipelines" viewBox="0 0 24 24">
    <path d="M14 2H6c-1.1 0-1.99.9-1.99 2L4 20c0 1.1.89 2 2 2h8c1.1 0 2-.9 2-2V4c0-1.1-.9-2-2-2zm0 18H6V4h8v16z" />
  </symbol>
  <symbol id="icon-azure-monitoring" viewBox="0 0 48 48">
    <path d="M43,4H5A2.9,2.9,0,0,0,2,7V18.9H7.3l1.8-3.7a1.9,1.9,0,0,1,1.8-1.1,2.1,2.1,0,0,1,1.8,1.1l2.9,6.1,4.8-10.2a2,2,0,0,1,3.6,0l3.7,7.8H30a2,2,0,0,1,0,4H26.4a2.2,2.2,0,0,1-1.8-1.2l-2.4-5L17.4,26.9A2.1,2.1,0,0,1,15.6,28a1.9,1.9,0,0,1-1.8-1.1l-2.9-6.1-.5.9a2,2,0,0,1-1.8,1.2H2V35a3,3,0,0,0,3,3H43a3,3,0,0,0,3-3V7A2.9,2.9,0,0,0,43,4ZM29.4,31.4A2,2,0,0,1,28,32H24a2,2,0,0,1-2-2,1.7,1.7,0,0,1,.6-1.4A2,2,0,0,1,24,28h4a2,2,0,0,1,2,2A1.7,1.7,0,0,1,29.4,31.4Zm10,0A2,2,0,0,1,38,32H34a2,2,0,0,1-2-2,1.7,1.7,0,0,1,.6-1.4A2,2,0,0,1,34,28h4a2,2,0,0,1,2,2A1.7,1.7,0,0,1,39.4,31.4Z" />
    <path d="M37,40H11a2,2,0,0,0,0,4H37a2,2,0,0,0,0-4Z" />
  </symbol>
  <symbol id="icon-azure-api-management" viewBox="0 0 24 24">
    <path d="M12 2C6.48 2 2 6.48 2 12s4.48 10 10 10 10-4.48 10-10S17.52 2 12 2zm-1.5 14.5v-9l6 4.5-6 4.5z" />
  </symbol>
</svg>